<svg xmlns="http://www.w3.org/2000/svg" width="1902" height="827" viewBox="0 0 1902 827" version="1.1">
	<path d="M 401 155.015 C 364.757 159.292, 339.243 166.318, 310.500 179.937 C 287.710 190.736, 267.570 203.934, 248.777 220.387 C 243.888 224.667, 242.887 226.148, 241.901 230.551 C 240.609 236.326, 241.775 241.801, 244.801 244.170 C 246.365 245.394, 246.381 245.341, 245 243.500 C 243.611 241.648, 243.629 241.601, 245.239 242.863 C 246.195 243.613, 246.714 244.654, 246.391 245.176 C 245.591 246.470, 249.013 250.110, 250.288 249.322 C 250.857 248.970, 251.006 249.181, 250.625 249.798 C 249.903 250.967, 272.425 276.794, 277.323 280.413 C 279.356 281.916, 281.642 282.500, 285.487 282.500 C 291.436 282.500, 290.154 283.267, 311.054 267.218 C 317.703 262.113, 325.585 256.558, 328.571 254.873 C 331.657 253.131, 333.718 251.352, 333.346 250.750 C 332.970 250.142, 333.165 249.984, 333.803 250.378 C 334.414 250.756, 338.636 249.194, 343.185 246.907 C 355.646 240.642, 375.529 233.798, 385.500 232.343 C 387.150 232.102, 390.975 231.456, 394 230.908 C 401.444 229.559, 428 228.486, 428 229.533 C 428 229.995, 424.351 238.276, 419.891 247.936 C 415.431 257.596, 411.186 266.850, 410.457 268.500 C 409.728 270.150, 407.267 275.550, 404.987 280.500 C 402.708 285.450, 396.550 298.950, 391.303 310.500 C 386.055 322.050, 378.475 338.700, 374.457 347.500 C 360.947 377.093, 348.970 403.407, 342.714 417.240 C 339.296 424.796, 336.126 430.984, 335.668 430.990 C 335.211 430.995, 332.915 429.425, 330.565 427.500 C 326.249 423.963, 324.287 423.037, 325.595 425.155 C 326.041 425.876, 325.869 426.037, 325.138 425.585 C 324.494 425.187, 324.209 424.471, 324.504 423.993 C 325.745 421.985, 304.180 410.094, 291.945 406.041 C 281.421 402.554, 268.150 401.077, 250.500 401.428 C 231.582 401.805, 222.832 403.898, 206.500 411.953 C 183.198 423.447, 168.579 440.643, 159.297 467.478 C 156.124 476.650, 155.485 481.802, 155.571 497.500 C 155.679 517.062, 157.158 524.357, 163.850 538.307 C 168.481 547.962, 170.902 551.340, 179.266 559.820 C 197.231 578.032, 221.735 586.937, 254 586.978 C 278.473 587.009, 301.155 580.342, 320.314 567.487 C 328.950 561.693, 339.917 551.652, 339.381 550.030 C 339.113 549.222, 339.226 548.893, 339.631 549.298 C 340.037 549.703, 341.837 548.612, 343.631 546.873 L 346.894 543.710 352.697 548.703 C 376.181 568.909, 399.203 579.659, 429.563 584.597 C 441.309 586.507, 468.933 587.104, 483.500 585.764 C 512.930 583.055, 541.133 573.165, 566.828 556.543 C 590.399 541.295, 614.006 515.938, 629.245 489.500 C 638.965 472.636, 648.633 445.963, 652.442 425.500 C 658.816 391.252, 659.291 371.256, 654.450 341 C 649.569 310.499, 639.862 283.012, 625.442 258.857 C 615.423 242.076, 592.293 214.150, 589.660 215.657 C 589.022 216.022, 588.842 215.944, 589.259 215.485 C 589.677 215.025, 589.036 213.602, 587.835 212.324 C 585.518 209.858, 583.393 209.152, 584.602 211.250 C 584.998 211.938, 584.125 211.409, 582.661 210.076 C 579.633 207.317, 579.072 205.978, 581.831 208.095 C 582.838 208.868, 581.451 207.406, 578.747 204.846 C 572.190 198.636, 555.719 187.415, 544 181.174 C 534.296 176.007, 510.701 166.091, 503.500 164.154 C 473.293 156.029, 465.187 154.893, 434.500 154.480 C 420.200 154.287, 405.125 154.528, 401 155.015 M 1639.915 161.677 C 1633.460 162.018, 1631.846 162.483, 1629.077 164.794 C 1626.008 167.357, 1625.747 168.106, 1624.467 178.005 C 1620.684 207.273, 1619.757 214.873, 1619.466 219 C 1619.291 221.475, 1618.693 225.501, 1618.136 227.946 C 1617.580 230.392, 1617.325 232.716, 1617.570 233.113 C 1617.814 233.509, 1617.530 236.094, 1616.937 238.858 L 1615.859 243.883 1596.339 244.191 C 1577.953 244.482, 1576.721 244.621, 1575.132 246.586 C 1573.761 248.282, 1573.103 253.717, 1571.624 275.586 C 1570.622 290.389, 1569.640 302.670, 1569.441 302.877 C 1568.703 303.646, 1572.088 308.976, 1573.945 309.970 C 1575.085 310.581, 1584.244 311, 1596.442 311 L 1617.015 311 1617.023 419.250 C 1617.027 478.788, 1617.288 529.075, 1617.602 531 C 1617.916 532.925, 1618.774 535.850, 1619.507 537.500 C 1620.241 539.150, 1621.152 541.625, 1621.532 543 C 1622.813 547.633, 1628.138 556.009, 1632.930 560.928 C 1642.217 570.463, 1661.584 580.316, 1672.568 581.094 C 1674.731 581.247, 1677.131 581.851, 1677.903 582.436 C 1678.828 583.137, 1694.077 583.616, 1722.640 583.840 L 1765.974 584.180 1768.987 581.167 L 1772 578.154 1772 549.531 L 1772 520.909 1769.545 518.455 L 1767.091 516 1741.795 515.994 C 1713.286 515.988, 1706.797 515.258, 1700.149 511.312 C 1697.592 509.794, 1695.275 508.534, 1695 508.511 C 1693.355 508.374, 1691.994 506.593, 1692.442 505.166 C 1692.730 504.250, 1692.298 501.291, 1691.483 498.591 C 1690.219 494.408, 1690 480.185, 1690 402.341 L 1690 311 1728.545 311 L 1767.091 311 1769.545 308.545 L 1772 306.091 1772 277.500 L 1772 248.909 1769.545 246.455 L 1767.091 244 1728.896 244 L 1690.700 244 1691.373 223.750 C 1691.744 212.613, 1692.268 200.575, 1692.538 197 C 1692.808 193.425, 1693.195 185.139, 1693.397 178.587 C 1693.748 167.191, 1693.663 166.572, 1691.428 164.337 C 1689.223 162.132, 1688.368 162, 1676.295 161.994 C 1669.258 161.991, 1659.900 161.828, 1655.500 161.632 C 1651.100 161.436, 1644.087 161.456, 1639.915 161.677 M 804.500 244.590 C 761.540 250.632, 727.891 267.237, 706.068 293.162 C 700.251 300.073, 698.845 302.015, 692.069 312.500 C 683.806 325.285, 675.926 345.710, 672.008 364.500 C 671.320 367.800, 670.353 372.075, 669.859 374 C 667.033 385.015, 666.350 439.141, 668.906 449.500 C 669.448 451.700, 670.170 455.975, 670.509 459 C 671.167 464.873, 672.513 471.619, 674.002 476.500 C 678.736 492.016, 680.667 497.516, 683.598 503.839 C 685.469 507.876, 687 511.349, 687 511.558 C 687 511.768, 689.230 515.714, 691.956 520.329 C 697.069 528.985, 703.981 537.975, 711.887 546.250 C 716.437 551.013, 719.981 552.974, 716.405 548.750 L 714.500 546.500 716.726 548.384 C 717.951 549.420, 718.733 550.623, 718.465 551.057 C 717.226 553.061, 736.553 566.059, 750.360 572.509 C 768.889 581.165, 789.476 585.782, 813.500 586.671 C 857.226 588.288, 898.098 573.824, 926.826 546.569 C 934.282 539.495, 943.949 527.581, 947.573 521 C 948.633 519.075, 949.778 517.275, 950.118 517 C 951.491 515.890, 960.062 497.007, 962.438 489.857 C 966.268 478.330, 970.912 453.380, 971.874 439.154 C 973.537 414.563, 971.016 374.300, 966.605 355 C 966.291 353.625, 965.765 351.259, 965.435 349.741 C 965.106 348.224, 964.429 347.235, 963.930 347.543 C 963.431 347.852, 963.279 347.437, 963.592 346.622 C 964.308 344.755, 959.925 330.928, 958.831 331.604 C 958.387 331.879, 958.319 331.332, 958.681 330.388 C 959.125 329.231, 958.962 328.905, 958.181 329.388 C 957.449 329.841, 957.222 329.584, 957.565 328.690 C 958.218 326.989, 947.007 304.740, 943.361 300.500 C 941.942 298.850, 941.127 298.175, 941.551 299 C 941.974 299.825, 941.935 300.149, 941.465 299.721 C 940.994 299.293, 940.514 298.296, 940.398 297.507 C 939.820 293.569, 924.191 277.792, 912.884 269.732 C 898.735 259.646, 876.604 250.766, 854.934 246.478 C 846.831 244.875, 811.800 243.564, 804.500 244.590 M 1122 244.647 C 1096.070 248.532, 1081.914 252.531, 1065.874 260.503 C 1038.023 274.346, 1016.566 295.657, 1002.813 323.133 C 982.899 362.922, 977.620 425.481, 990.060 474.283 C 991.212 478.802, 992.245 482.950, 992.356 483.500 C 992.466 484.050, 992.820 484.950, 993.143 485.500 C 993.465 486.050, 994.715 489.596, 995.920 493.380 C 1000.006 506.212, 1015.679 533.935, 1018.027 532.483 C 1018.550 532.160, 1018.721 532.563, 1018.408 533.379 C 1017.544 535.630, 1037.058 554.587, 1047.025 561.179 C 1064.758 572.908, 1085.649 581.153, 1106.500 584.654 C 1122.883 587.404, 1151.529 587.157, 1167 584.133 C 1173.325 582.897, 1180.525 581.294, 1183 580.570 C 1192.480 577.800, 1208.890 570.825, 1217.512 565.902 C 1231.412 557.964, 1249.935 542.322, 1248.392 539.825 C 1247.973 539.147, 1248.136 538.966, 1248.799 539.375 C 1250.057 540.153, 1256.127 532.869, 1262.605 522.808 C 1278.406 498.262, 1286.898 467.423, 1288.435 429 C 1289.069 413.136, 1287.734 381.850, 1286.003 372 C 1285.471 368.975, 1284.758 364.700, 1284.418 362.500 C 1283.269 355.065, 1276.860 334.562, 1272.472 324.280 C 1267.736 313.184, 1258.352 297.665, 1256.915 298.552 C 1256.425 298.856, 1256.287 298.416, 1256.609 297.575 C 1257.940 294.108, 1225.048 264.616, 1221.971 266.518 C 1221.410 266.865, 1221.074 266.627, 1221.225 265.990 C 1221.376 265.352, 1217.675 262.858, 1213 260.447 C 1198.356 252.895, 1176.930 246.623, 1160.222 244.997 C 1150.873 244.088, 1127.182 243.871, 1122 244.647 M 495.063 255.282 C 492.623 260.902, 488.686 269.680, 486.313 274.788 C 483.941 279.897, 482 284.261, 482 284.485 C 482 284.710, 480.457 288.180, 478.571 292.197 C 476.685 296.214, 469.311 312.100, 462.184 327.500 C 455.057 342.900, 447.550 359.100, 445.503 363.500 C 443.456 367.900, 439.188 377.125, 436.018 384 C 429.478 398.186, 418.811 421.026, 410.799 438 C 407.814 444.325, 403.825 452.840, 401.936 456.922 C 400.046 461.003, 396.412 468.653, 393.861 473.922 C 388.459 485.075, 388.051 483.835, 399.944 492.398 C 411.392 500.641, 423.765 506.484, 436.516 509.671 C 446.152 512.078, 449.402 512.413, 463 512.400 C 474.240 512.390, 480.396 511.915, 485.399 510.673 C 489.193 509.731, 493.243 509.223, 494.399 509.545 C 495.883 509.959, 496.105 509.857, 495.155 509.198 C 494.143 508.495, 494.514 508.091, 496.655 507.563 C 501.972 506.252, 517.939 498.162, 525.430 492.983 C 533.421 487.459, 546.023 474.953, 552.625 465.994 C 564.756 449.535, 573.781 428.366, 577.565 407.500 C 579.501 396.828, 580.470 364.971, 579.051 358.687 C 578.453 356.040, 577.720 351.540, 577.424 348.687 C 576.347 338.339, 569.661 318.195, 562.778 304.560 C 556.937 292.989, 547.690 280.536, 537.114 270 C 531.317 264.225, 526.682 259.129, 526.812 258.676 C 526.943 258.222, 526.617 258.119, 526.087 258.446 C 525.558 258.773, 522.060 257.065, 518.313 254.650 C 511.252 250.099, 501.649 244.976, 500.283 245.032 C 499.852 245.050, 497.504 249.662, 495.063 255.282 M 1488.549 246.357 C 1483.838 247.474, 1478.956 253.285, 1477.394 259.634 C 1473.561 275.220, 1464.743 308.978, 1460.711 323.500 C 1459.337 328.450, 1456.830 337.675, 1455.139 344 C 1451.251 358.541, 1446.669 375.483, 1438.911 404 C 1431.472 431.340, 1431.617 430.727, 1431.637 434.778 C 1431.645 436.581, 1431.353 437.572, 1430.988 436.980 C 1430.450 436.110, 1427.213 445.777, 1426.391 450.706 C 1426.280 451.370, 1425.502 454.070, 1424.661 456.706 C 1423.820 459.343, 1420.579 471.400, 1417.458 483.500 C 1414.338 495.600, 1411.480 505.830, 1411.108 506.234 C 1410.736 506.638, 1407.324 494.540, 1403.526 479.350 C 1398.621 459.734, 1396.381 452.278, 1395.795 453.616 C 1395.193 454.988, 1395.113 454.760, 1395.497 452.775 C 1395.803 451.200, 1394.340 443.608, 1392.030 434.775 C 1384.491 405.948, 1380.905 392.461, 1374.542 369 C 1371.036 356.075, 1366.072 337.625, 1363.510 328 C 1360.948 318.375, 1358.229 308.475, 1357.468 306 C 1356.707 303.525, 1355.395 298.575, 1354.551 295 C 1349.773 274.738, 1343.955 254.410, 1342.280 252.124 C 1341.223 250.681, 1338.815 248.704, 1336.929 247.730 C 1333.822 246.127, 1330.464 245.986, 1301.162 246.230 L 1268.825 246.500 1266.412 249.306 C 1265.086 250.849, 1264 253.163, 1264 254.448 C 1264 255.733, 1266.287 263.920, 1269.082 272.642 C 1285.524 323.952, 1292.040 343.983, 1308.720 394.500 C 1318.890 425.300, 1328.295 453.332, 1329.618 456.792 C 1330.942 460.253, 1332.145 463.853, 1332.292 464.792 C 1332.438 465.732, 1332.816 466.950, 1333.131 467.500 C 1333.445 468.050, 1335.825 475.250, 1338.419 483.500 C 1341.013 491.750, 1343.726 500.075, 1344.449 502 C 1345.171 503.925, 1351.264 521.925, 1357.989 542 C 1364.713 562.075, 1370.671 579.400, 1371.228 580.500 C 1371.784 581.600, 1373.531 583.866, 1375.109 585.536 L 1377.977 588.572 1374.646 597.036 C 1372.814 601.691, 1370.293 607.525, 1369.045 610 C 1362.947 622.088, 1352.764 631.102, 1341.236 634.613 C 1335.245 636.438, 1321.281 636.978, 1305.361 636 C 1298.352 635.569, 1296.932 635.762, 1295.131 637.387 C 1292.744 639.541, 1292.705 639.746, 1290.497 662 C 1289.597 671.075, 1288.210 682.926, 1287.416 688.335 C 1285.797 699.363, 1286.465 702.412, 1291 704.706 C 1294.556 706.505, 1336.489 706.438, 1348.631 704.615 C 1360.137 702.887, 1374.812 698.163, 1372.864 696.814 C 1371.867 696.123, 1372.038 696.016, 1373.500 696.415 C 1375.818 697.049, 1387.633 690.803, 1387.262 689.140 C 1387.131 688.553, 1387.648 688.311, 1388.411 688.604 C 1389.174 688.897, 1390.138 688.586, 1390.553 687.914 C 1391.068 687.080, 1390.892 686.949, 1390 687.500 C 1389.127 688.039, 1388.932 687.919, 1389.415 687.138 C 1389.813 686.494, 1390.553 686.224, 1391.061 686.538 C 1392.268 687.284, 1400.105 680.979, 1399.396 679.832 C 1399.096 679.347, 1399.447 679.074, 1400.176 679.225 C 1400.904 679.376, 1401.376 678.904, 1401.225 678.176 C 1401.074 677.447, 1401.374 677.113, 1401.892 677.433 C 1402.409 677.753, 1405.008 675.424, 1407.666 672.257 C 1410.325 669.091, 1412.756 666.275, 1413.070 666 C 1414.556 664.696, 1422.006 653.769, 1425.682 647.500 C 1436.079 629.773, 1443.372 611.335, 1459.107 563 C 1461.883 554.475, 1467.890 536.250, 1472.458 522.500 C 1483.379 489.622, 1504.780 423.400, 1528.529 349 C 1534.937 328.925, 1544.190 299.971, 1549.090 284.659 C 1553.991 269.346, 1558 255.534, 1558 253.965 C 1558 252.395, 1556.987 249.952, 1555.750 248.536 L 1553.500 245.960 1522.833 245.730 C 1505.966 245.604, 1490.538 245.886, 1488.549 246.357 M 1556.195 254.500 C 1556.215 256.150, 1556.439 256.704, 1556.693 255.731 C 1556.947 254.758, 1556.930 253.408, 1556.656 252.731 C 1556.382 252.054, 1556.175 252.850, 1556.195 254.500 M 1215.083 263.365 C 1215.313 263.565, 1216.625 264.265, 1218 264.920 C 1220.357 266.042, 1220.389 266.022, 1218.559 264.555 C 1216.966 263.279, 1213.711 262.164, 1215.083 263.365 M 1234.252 275.639 C 1235.216 276.752, 1235.666 278.035, 1235.252 278.491 C 1234.838 278.948, 1235.031 279.016, 1235.681 278.644 C 1236.330 278.272, 1237.143 278.422, 1237.487 278.978 C 1238.106 279.980, 1242 282.369, 1242 281.747 C 1242 281.569, 1239.862 279.667, 1237.250 277.520 C 1234.638 275.373, 1233.288 274.526, 1234.252 275.639 M 1246 286.500 C 1247.292 287.875, 1248.574 289, 1248.849 289 C 1249.124 289, 1248.292 287.875, 1247 286.500 C 1245.708 285.125, 1244.426 284, 1244.151 284 C 1243.876 284, 1244.708 285.125, 1246 286.500 M 1256.578 300.874 C 1256.269 301.373, 1257.171 302.537, 1258.582 303.462 C 1261.074 305.094, 1261.116 305.085, 1260.068 303.127 C 1258.717 300.603, 1257.307 299.694, 1256.578 300.874 M 1574 308.986 C 1574.825 309.527, 1576.588 309.976, 1577.917 309.985 C 1581.126 310.005, 1580.313 309.436, 1576 308.645 C 1573.538 308.193, 1572.945 308.294, 1574 308.986 M 808 310.484 C 804.425 311.229, 798.640 312.743, 795.144 313.848 C 791.649 314.952, 788.274 315.737, 787.644 315.592 C 787.015 315.447, 786.876 315.529, 787.335 315.776 C 787.794 316.022, 785.270 317.960, 781.724 320.084 C 764.823 330.206, 753.501 346.263, 747.094 369.197 C 739.659 395.814, 740.608 442.919, 749.105 468.939 C 753.847 483.460, 762.660 496.632, 773.012 504.671 C 776.276 507.205, 778.720 509.643, 778.445 510.089 C 778.169 510.535, 778.969 511.397, 780.222 512.005 C 782.404 513.064, 782.418 513.045, 780.559 511.555 C 777.659 509.232, 779.386 509.664, 785.779 512.863 C 791.589 515.770, 796.772 517.684, 801.104 518.522 C 816.594 521.521, 823.044 521.723, 834.333 519.563 C 859.197 514.806, 877.346 500.225, 888.044 476.412 C 891.442 468.846, 893.045 463.397, 896.104 449 C 897.808 440.979, 898.120 435.815, 898.105 415.826 C 898.087 390.325, 897.082 381.415, 892.406 365.264 C 889.422 354.960, 886.995 349.226, 882.950 342.922 C 879.765 337.959, 879.280 336.450, 881.250 337.633 C 882.110 338.149, 882.074 337.859, 881.137 336.703 C 880.387 335.778, 879.455 335.219, 879.066 335.460 C 878.230 335.976, 866.500 324.047, 866.500 322.680 C 866.500 322.165, 865.375 321.071, 864 320.249 L 861.500 318.754 864 320.855 C 866.958 323.341, 865.976 323.685, 862.473 321.391 C 861.122 320.505, 860.308 319.311, 860.663 318.736 C 861.019 318.160, 860.832 317.986, 860.248 318.347 C 859.664 318.708, 856.357 317.665, 852.899 316.030 C 849.442 314.395, 844.208 312.519, 841.268 311.861 C 838.329 311.203, 836.343 310.403, 836.855 310.082 C 838.838 308.842, 814.235 309.184, 808 310.484 M 1128.273 310.031 C 1119.897 310.912, 1108.633 314.139, 1101.738 317.633 C 1099.091 318.974, 1096.422 319.761, 1095.808 319.381 C 1095.147 318.973, 1094.970 319.142, 1095.373 319.795 C 1096.157 321.064, 1092.629 323.295, 1091.548 322.215 C 1091.155 321.822, 1090.957 321.950, 1091.107 322.500 C 1091.335 323.332, 1078.523 336.841, 1077.750 336.583 C 1077.612 336.538, 1077.592 336.667, 1077.704 336.870 C 1077.816 337.074, 1076.373 339.640, 1074.497 342.572 C 1070.664 348.564, 1064.846 362.195, 1063.216 369 C 1059.514 384.459, 1058.591 393.922, 1058.582 416.500 C 1058.575 433.885, 1058.986 441.730, 1060.266 448.636 C 1066.055 479.854, 1078.556 499.889, 1099.575 511.636 C 1102.661 513.360, 1104.807 514.974, 1104.343 515.222 C 1103.879 515.469, 1103.983 515.566, 1104.574 515.435 C 1105.164 515.305, 1109.439 516.350, 1114.074 517.759 C 1121.351 519.971, 1124.409 520.325, 1136.500 520.359 C 1149.157 520.394, 1151.293 520.134, 1158.767 517.650 C 1163.313 516.139, 1167.545 515.219, 1168.171 515.606 C 1168.870 516.038, 1169.034 515.864, 1168.595 515.155 C 1168.203 514.520, 1168.289 514, 1168.786 514 C 1169.283 514, 1172.572 512.094, 1176.095 509.763 C 1179.618 507.433, 1182.950 505.512, 1183.500 505.494 C 1184.050 505.476, 1184.592 505.114, 1184.704 504.689 C 1184.816 504.264, 1187.305 501.268, 1190.234 498.031 C 1200.459 486.731, 1206.783 473.046, 1211.202 452.650 C 1213.154 443.644, 1213.407 439.457, 1213.451 415.500 C 1213.516 379.676, 1211.524 368.303, 1201.791 348.933 C 1199.461 344.295, 1197.604 339.942, 1197.664 339.261 C 1197.725 338.579, 1197.426 338.237, 1197 338.500 C 1195.784 339.251, 1193.744 336.223, 1194.568 334.889 C 1194.993 334.203, 1194.887 333.952, 1194.320 334.302 C 1193.776 334.638, 1191.344 332.851, 1188.916 330.331 C 1179.317 320.371, 1164.343 312.844, 1148.566 310.051 C 1142.059 308.898, 1139.077 308.895, 1128.273 310.031 M 1603.750 309.723 C 1605.537 309.945, 1608.463 309.945, 1610.250 309.723 C 1612.037 309.502, 1610.575 309.320, 1607 309.320 C 1603.425 309.320, 1601.963 309.502, 1603.750 309.723 M 301.464 411.942 C 301.757 412.415, 303.363 413.279, 305.032 413.861 C 306.702 414.444, 307.829 414.532, 307.536 414.058 C 307.243 413.585, 305.637 412.721, 303.968 412.139 C 302.298 411.556, 301.171 411.468, 301.464 411.942 M 342.459 420.067 C 342.096 420.653, 342.014 421.348, 342.276 421.610 C 342.538 421.872, 343.019 421.392, 343.345 420.543 C 344.021 418.781, 343.445 418.471, 342.459 420.067 M 245.492 464.773 C 224.197 472.240, 217.191 500.098, 233.013 514.393 C 239.816 520.539, 244.425 522.320, 254.783 522.806 C 265.409 523.304, 270.836 522.124, 277.581 517.846 C 280.083 516.260, 282.561 515.229, 283.089 515.555 C 283.618 515.882, 283.926 515.553, 283.775 514.824 C 283.624 514.096, 284.256 513.494, 285.179 513.487 C 286.926 513.474, 288.500 512.352, 288.500 511.119 C 288.500 510.726, 290.561 507.951, 293.080 504.952 C 299.365 497.470, 303 492.492, 303 491.366 C 303 489.529, 290.087 476.303, 284.612 472.533 C 281.559 470.430, 279.342 468.256, 279.685 467.700 C 280.028 467.145, 279.846 466.977, 279.281 467.327 C 278.715 467.676, 275.608 466.901, 272.376 465.603 C 264.825 462.572, 252.827 462.201, 245.492 464.773 M 1693 505.941 C 1693 506.459, 1693.445 507.157, 1693.989 507.493 C 1694.555 507.843, 1694.723 507.442, 1694.382 506.552 C 1693.717 504.820, 1693 504.503, 1693 505.941 M 1171 514 C 1170.099 514.582, 1169.975 514.975, 1170.691 514.985 C 1171.346 514.993, 1172.160 514.550, 1172.500 514 C 1173.267 512.758, 1172.921 512.758, 1171 514 M 461.762 514.707 C 463.006 514.946, 464.806 514.937, 465.762 514.687 C 466.718 514.437, 465.700 514.241, 463.500 514.252 C 461.300 514.263, 460.518 514.468, 461.762 514.707 M 1753.728 517.722 C 1755.503 517.943, 1758.653 517.946, 1760.728 517.730 C 1762.802 517.513, 1761.350 517.333, 1757.500 517.328 C 1753.650 517.324, 1751.952 517.501, 1753.728 517.722 M 1152.813 520.683 C 1153.534 520.972, 1154.397 520.936, 1154.729 520.604 C 1155.061 520.272, 1154.471 520.036, 1153.417 520.079 C 1152.252 520.127, 1152.015 520.364, 1152.813 520.683 M 1147.813 521.683 C 1148.534 521.972, 1149.397 521.936, 1149.729 521.604 C 1150.061 521.272, 1149.471 521.036, 1148.417 521.079 C 1147.252 521.127, 1147.015 521.364, 1147.813 521.683 M 1310.750 704.706 C 1311.987 704.944, 1314.013 704.944, 1315.250 704.706 C 1316.487 704.467, 1315.475 704.272, 1313 704.272 C 1310.525 704.272, 1309.513 704.467, 1310.750 704.706" stroke="none" fill="#F15A24" fill-rule="evenodd"/>
</svg>